<svg xmlns="http://www.w3.org/2000/svg" xmlns:xlink="http://www.w3.org/1999/xlink" xml:space="preserve" viewBox="0 0 2186.9871 799.40898" height="799.409" width="2186.9871" y="0px" x="0px" id="Layer_1" version="1.1"><defs id="defs5"></defs>


<path transform="matrix(0.98035704,0,0,0.88483847,84.941035,85.542153)" d="M -6.6429596,-96.675446 H 2064.1637 a 80,80 45 0 1 80,80 V 726.77646 a 80,80 135 0 1 -80,80 H -6.6429596 a 80,80 45 0 1 -80.0000004,-80 V -16.675446 a 80,80 135 0 1 80.0000004,-80 z" y="-96.675446" x="-86.64296" height="903.4519" width="2230.8066" id="rect1" style="fill:#ffffff"></path><switch transform="translate(-810.48,-378.92)" id="switch5">
	
	<g id="g6"><g id="g5">
		<g id="g4">
			<defs id="defs1"><rect y="0" x="0" height="2720.6331" width="3840" id="SVGID_1_"></rect></defs>
			<clipPath id="SVGID_2_">
				
			</clipPath>
			<path id="path1" d="m 2811.755,529.203 v -16.81 c 28.804,0 52.237,23.434 52.237,52.238 h -16.809 c 0,-19.535 -15.892,-35.428 -35.428,-35.428 m 72.165,35.428 h 16.81 c 0,-49.061 -39.914,-88.974 -88.975,-88.974 v 16.809 c 39.792,0 72.165,32.373 72.165,72.165 m 36.736,0 h 16.811 c 0,-69.316 -56.395,-125.711 -125.712,-125.711 v 16.81 c 60.049,0 108.901,48.853 108.901,108.901" clip-path="url(#SVGID_2_)"></path>
			<path id="path2" d="M 1636.606,573.835 V 438.92 H 870.48 v 134.915 h 138.716 v 338.02 c 0,114.033 92.442,206.474 206.475,206.474 h 420.935 V 983.413 H 1262.03 c -59.102,0 -107.013,-47.911 -107.013,-107.013 V 573.835 Z m 1165.945,0 V 876.4 c 0,59.102 -47.911,107.013 -107.014,107.013 h -864.829 v 134.915 h 900.284 c 114.033,0 206.475,-92.441 206.475,-206.474 v -338.02 h -134.916 z m -1614.076,29.029 v 263.755 c 0,48.471 39.294,87.765 87.765,87.765 h 189.753 V 819.468 h -113.034 c -10.307,0 -18.663,-8.355 -18.663,-18.663 v -44.362 c 0,-10.307 8.356,-18.663 18.663,-18.663 h 119.164 c 10.309,0 18.663,8.356 18.663,18.663 v 197.941 h 145.821 v -351.52 z m 471.619,0 v 515.464 h 145.821 V 756.443 c 0,-10.307 8.355,-18.663 18.663,-18.663 h 119.164 c 10.307,0 18.663,8.356 18.663,18.663 v 44.362 c 0,10.308 -8.356,18.663 -18.663,18.663 h -113.034 v 134.916 h 189.752 c 48.472,0 87.765,-39.294 87.765,-87.765 V 602.864 Z M 2802.551,573.835 V 438.92 H 1660.094 v 134.915 h 481.589 v 380.549 h 145.82 V 573.835 Z m -33.457,29.029 v 263.755 c 0,48.471 -39.295,87.765 -87.766,87.765 h -272.602 c -48.471,0 -87.766,-39.294 -87.766,-87.765 V 602.864 Z M 2604.609,737.78 h -119.164 c -10.307,0 -18.663,8.356 -18.663,18.663 v 44.362 c 0,10.308 8.356,18.663 18.663,18.663 h 119.164 c 10.307,0 18.663,-8.355 18.663,-18.663 v -44.362 c 0,-10.307 -8.356,-18.663 -18.663,-18.663" clip-path="url(#SVGID_2_)"></path>
			
			
		</g>
	</g></g>
</switch></svg>
